<mxfile host="app.diagrams.net" modified="2024-03-13T19:42:52.843Z" agent="Mozilla/5.0 (Windows NT 10.0; Win64; x64) AppleWebKit/537.36 (KHTML, like Gecko) Chrome/122.0.0.0 Safari/537.36" version="24.0.6" etag="0p6mejoOpKAU0lRX-H8J" type="device">
  <diagram id="Hc-ZgiiHT6I7PFDQGZAZ" name="Página-1">
    <mxGraphModel dx="1120" dy="529" grid="1" gridSize="10" guides="1" tooltips="1" connect="1" arrows="1" fold="1" page="1" pageScale="1" pageWidth="1100" pageHeight="850" math="0" shadow="0">
      <root>
        <mxCell id="0" />
        <mxCell id="1" parent="0" />
        <mxCell id="E0TSEvDE1UdOaPyXunfD-14" style="edgeStyle=orthogonalEdgeStyle;rounded=0;orthogonalLoop=1;jettySize=auto;html=1;entryX=0.5;entryY=0;entryDx=0;entryDy=0;" edge="1" parent="1" source="E0TSEvDE1UdOaPyXunfD-1" target="E0TSEvDE1UdOaPyXunfD-5">
          <mxGeometry relative="1" as="geometry" />
        </mxCell>
        <mxCell id="E0TSEvDE1UdOaPyXunfD-15" style="edgeStyle=orthogonalEdgeStyle;rounded=0;orthogonalLoop=1;jettySize=auto;html=1;entryX=0.5;entryY=0;entryDx=0;entryDy=0;" edge="1" parent="1" source="E0TSEvDE1UdOaPyXunfD-1" target="E0TSEvDE1UdOaPyXunfD-3">
          <mxGeometry relative="1" as="geometry" />
        </mxCell>
        <mxCell id="E0TSEvDE1UdOaPyXunfD-16" style="edgeStyle=orthogonalEdgeStyle;rounded=0;orthogonalLoop=1;jettySize=auto;html=1;" edge="1" parent="1" source="E0TSEvDE1UdOaPyXunfD-1" target="E0TSEvDE1UdOaPyXunfD-4">
          <mxGeometry relative="1" as="geometry" />
        </mxCell>
        <mxCell id="E0TSEvDE1UdOaPyXunfD-1" value="Sistema de empréstimo e devolução de livros Biblioteca" style="rounded=0;whiteSpace=wrap;html=1;" vertex="1" parent="1">
          <mxGeometry x="380" y="20" width="120" height="60" as="geometry" />
        </mxCell>
        <mxCell id="E0TSEvDE1UdOaPyXunfD-11" style="edgeStyle=orthogonalEdgeStyle;rounded=0;orthogonalLoop=1;jettySize=auto;html=1;entryX=0.5;entryY=0;entryDx=0;entryDy=0;" edge="1" parent="1" source="E0TSEvDE1UdOaPyXunfD-3" target="E0TSEvDE1UdOaPyXunfD-7">
          <mxGeometry relative="1" as="geometry" />
        </mxCell>
        <mxCell id="E0TSEvDE1UdOaPyXunfD-12" style="edgeStyle=orthogonalEdgeStyle;rounded=0;orthogonalLoop=1;jettySize=auto;html=1;entryX=0;entryY=0.5;entryDx=0;entryDy=0;" edge="1" parent="1" source="E0TSEvDE1UdOaPyXunfD-3" target="E0TSEvDE1UdOaPyXunfD-4">
          <mxGeometry relative="1" as="geometry" />
        </mxCell>
        <mxCell id="E0TSEvDE1UdOaPyXunfD-3" value="processo" style="rounded=0;whiteSpace=wrap;html=1;" vertex="1" parent="1">
          <mxGeometry x="380" y="130" width="120" height="60" as="geometry" />
        </mxCell>
        <mxCell id="E0TSEvDE1UdOaPyXunfD-26" style="edgeStyle=orthogonalEdgeStyle;rounded=0;orthogonalLoop=1;jettySize=auto;html=1;entryX=0.5;entryY=0;entryDx=0;entryDy=0;" edge="1" parent="1" source="E0TSEvDE1UdOaPyXunfD-4" target="E0TSEvDE1UdOaPyXunfD-23">
          <mxGeometry relative="1" as="geometry" />
        </mxCell>
        <mxCell id="E0TSEvDE1UdOaPyXunfD-4" value="consulta e relatório" style="rounded=0;whiteSpace=wrap;html=1;" vertex="1" parent="1">
          <mxGeometry x="540" y="130" width="120" height="60" as="geometry" />
        </mxCell>
        <mxCell id="E0TSEvDE1UdOaPyXunfD-10" style="edgeStyle=orthogonalEdgeStyle;rounded=0;orthogonalLoop=1;jettySize=auto;html=1;entryX=0.5;entryY=0;entryDx=0;entryDy=0;" edge="1" parent="1" source="E0TSEvDE1UdOaPyXunfD-5" target="E0TSEvDE1UdOaPyXunfD-6">
          <mxGeometry relative="1" as="geometry" />
        </mxCell>
        <mxCell id="E0TSEvDE1UdOaPyXunfD-5" value="cadastro" style="rounded=0;whiteSpace=wrap;html=1;" vertex="1" parent="1">
          <mxGeometry x="220" y="130" width="120" height="60" as="geometry" />
        </mxCell>
        <mxCell id="E0TSEvDE1UdOaPyXunfD-6" value="cadastro dos livros" style="rounded=0;whiteSpace=wrap;html=1;" vertex="1" parent="1">
          <mxGeometry x="220" y="240" width="120" height="60" as="geometry" />
        </mxCell>
        <mxCell id="E0TSEvDE1UdOaPyXunfD-20" style="edgeStyle=orthogonalEdgeStyle;rounded=0;orthogonalLoop=1;jettySize=auto;html=1;entryX=0.5;entryY=0;entryDx=0;entryDy=0;" edge="1" parent="1" source="E0TSEvDE1UdOaPyXunfD-7" target="E0TSEvDE1UdOaPyXunfD-8">
          <mxGeometry relative="1" as="geometry" />
        </mxCell>
        <mxCell id="E0TSEvDE1UdOaPyXunfD-7" value="empréstimo do livro" style="rounded=0;whiteSpace=wrap;html=1;" vertex="1" parent="1">
          <mxGeometry x="380" y="240" width="120" height="60" as="geometry" />
        </mxCell>
        <mxCell id="E0TSEvDE1UdOaPyXunfD-21" style="edgeStyle=orthogonalEdgeStyle;rounded=0;orthogonalLoop=1;jettySize=auto;html=1;entryX=0.5;entryY=0;entryDx=0;entryDy=0;" edge="1" parent="1" source="E0TSEvDE1UdOaPyXunfD-8" target="E0TSEvDE1UdOaPyXunfD-18">
          <mxGeometry relative="1" as="geometry" />
        </mxCell>
        <mxCell id="E0TSEvDE1UdOaPyXunfD-8" value="devolução do livro" style="rounded=0;whiteSpace=wrap;html=1;" vertex="1" parent="1">
          <mxGeometry x="380" y="340" width="120" height="60" as="geometry" />
        </mxCell>
        <mxCell id="E0TSEvDE1UdOaPyXunfD-22" style="edgeStyle=orthogonalEdgeStyle;rounded=0;orthogonalLoop=1;jettySize=auto;html=1;entryX=0.5;entryY=0;entryDx=0;entryDy=0;" edge="1" parent="1" source="E0TSEvDE1UdOaPyXunfD-18" target="E0TSEvDE1UdOaPyXunfD-19">
          <mxGeometry relative="1" as="geometry" />
        </mxCell>
        <mxCell id="E0TSEvDE1UdOaPyXunfD-18" value="Livros disponíveis para empréstimo" style="rounded=0;whiteSpace=wrap;html=1;" vertex="1" parent="1">
          <mxGeometry x="380" y="440" width="120" height="60" as="geometry" />
        </mxCell>
        <mxCell id="E0TSEvDE1UdOaPyXunfD-19" value="reservar livros" style="rounded=0;whiteSpace=wrap;html=1;" vertex="1" parent="1">
          <mxGeometry x="380" y="540" width="120" height="60" as="geometry" />
        </mxCell>
        <mxCell id="E0TSEvDE1UdOaPyXunfD-27" style="edgeStyle=orthogonalEdgeStyle;rounded=0;orthogonalLoop=1;jettySize=auto;html=1;entryX=0.5;entryY=0;entryDx=0;entryDy=0;" edge="1" parent="1" source="E0TSEvDE1UdOaPyXunfD-23" target="E0TSEvDE1UdOaPyXunfD-24">
          <mxGeometry relative="1" as="geometry" />
        </mxCell>
        <mxCell id="E0TSEvDE1UdOaPyXunfD-23" value="cadastro dos livros" style="rounded=0;whiteSpace=wrap;html=1;" vertex="1" parent="1">
          <mxGeometry x="540" y="240" width="120" height="60" as="geometry" />
        </mxCell>
        <mxCell id="E0TSEvDE1UdOaPyXunfD-28" style="edgeStyle=orthogonalEdgeStyle;rounded=0;orthogonalLoop=1;jettySize=auto;html=1;entryX=0.5;entryY=0;entryDx=0;entryDy=0;" edge="1" parent="1" source="E0TSEvDE1UdOaPyXunfD-24" target="E0TSEvDE1UdOaPyXunfD-25">
          <mxGeometry relative="1" as="geometry" />
        </mxCell>
        <mxCell id="E0TSEvDE1UdOaPyXunfD-24" value="empréstimo e devolução dos livros" style="rounded=0;whiteSpace=wrap;html=1;" vertex="1" parent="1">
          <mxGeometry x="540" y="340" width="120" height="60" as="geometry" />
        </mxCell>
        <mxCell id="E0TSEvDE1UdOaPyXunfD-25" value="reservar livros" style="rounded=0;whiteSpace=wrap;html=1;" vertex="1" parent="1">
          <mxGeometry x="540" y="440" width="120" height="60" as="geometry" />
        </mxCell>
      </root>
    </mxGraphModel>
  </diagram>
</mxfile>
